<mxfile host="app.diagrams.net" modified="2021-03-22T09:22:38.972Z" agent="5.0 (Windows NT 10.0; Win64; x64) AppleWebKit/537.36 (KHTML, like Gecko) Chrome/89.0.4389.90 Safari/537.36" etag="WbC4ezM4esVpDfYRn3sk" version="14.4.9" type="github">
  <diagram name="Page-1" id="13e1069c-82ec-6db2-03f1-153e76fe0fe0">
    <mxGraphModel dx="2392" dy="759" grid="1" gridSize="10" guides="1" tooltips="1" connect="1" arrows="1" fold="1" page="1" pageScale="1" pageWidth="1100" pageHeight="850" background="#ffffff" math="0" shadow="0">
      <root>
        <mxCell id="0" />
        <mxCell id="1" parent="0" />
        <mxCell id="7baba1c4bc27f4b0-2" value="XDSCommon::IRisPlus::&lt;br&gt;CIRISPlusDataRepository" style="shape=umlLifeline;perimeter=lifelinePerimeter;whiteSpace=wrap;html=1;container=1;collapsible=0;recursiveResize=0;outlineConnect=0;rounded=1;shadow=0;comic=0;labelBackgroundColor=none;strokeWidth=1;fontFamily=Verdana;fontSize=12;align=center;" parent="1" vertex="1">
          <mxGeometry x="250" y="80" width="160" height="580" as="geometry" />
        </mxCell>
        <mxCell id="7baba1c4bc27f4b0-10" value="" style="html=1;points=[];perimeter=orthogonalPerimeter;rounded=0;shadow=0;comic=0;labelBackgroundColor=none;strokeWidth=1;fontFamily=Verdana;fontSize=12;align=center;" parent="7baba1c4bc27f4b0-2" vertex="1">
          <mxGeometry x="75" y="160" width="10" height="50" as="geometry" />
        </mxCell>
        <mxCell id="HAT6p0DpIvaJkLepDCV6-22" value="" style="html=1;points=[];perimeter=orthogonalPerimeter;fontSize=12;" vertex="1" parent="7baba1c4bc27f4b0-2">
          <mxGeometry x="75" y="230" width="10" height="40" as="geometry" />
        </mxCell>
        <mxCell id="HAT6p0DpIvaJkLepDCV6-25" value="m_mapShapes" style="html=1;points=[];perimeter=orthogonalPerimeter;fontSize=12;" vertex="1" parent="7baba1c4bc27f4b0-2">
          <mxGeometry x="75" y="290" width="10" height="40" as="geometry" />
        </mxCell>
        <mxCell id="HAT6p0DpIvaJkLepDCV6-26" value="&lt;div style=&quot;text-align: center&quot;&gt;&lt;font face=&quot;Helvetica&quot;&gt;&lt;span style=&quot;background-color: rgb(248 , 249 , 250)&quot;&gt;__readGeomLayer&lt;/span&gt;&lt;/font&gt;()&lt;/div&gt;" style="edgeStyle=orthogonalEdgeStyle;html=1;align=left;spacingLeft=2;endArrow=block;rounded=0;fontSize=12;fontFamily=Verdana;" edge="1" target="HAT6p0DpIvaJkLepDCV6-25" parent="7baba1c4bc27f4b0-2" source="HAT6p0DpIvaJkLepDCV6-22">
          <mxGeometry relative="1" as="geometry">
            <mxPoint x="80" y="300" as="sourcePoint" />
            <Array as="points">
              <mxPoint x="110" y="250" />
              <mxPoint x="110" y="300" />
            </Array>
          </mxGeometry>
        </mxCell>
        <mxCell id="7baba1c4bc27f4b0-8" value="IrisPlus::&lt;br&gt;CImportData" style="shape=umlLifeline;perimeter=lifelinePerimeter;whiteSpace=wrap;html=1;container=1;collapsible=0;recursiveResize=0;outlineConnect=0;rounded=1;shadow=0;comic=0;labelBackgroundColor=none;strokeWidth=1;fontFamily=Verdana;fontSize=12;align=center;" parent="1" vertex="1">
          <mxGeometry x="80" y="80" width="150" height="580" as="geometry" />
        </mxCell>
        <mxCell id="7baba1c4bc27f4b0-9" value="" style="html=1;points=[];perimeter=orthogonalPerimeter;rounded=0;shadow=0;comic=0;labelBackgroundColor=none;strokeWidth=1;fontFamily=Verdana;fontSize=12;align=center;" parent="7baba1c4bc27f4b0-8" vertex="1">
          <mxGeometry x="70" y="120" width="10" height="170" as="geometry" />
        </mxCell>
        <mxCell id="7baba1c4bc27f4b0-11" value="readIrisCfg()" style="html=1;verticalAlign=bottom;endArrow=block;labelBackgroundColor=none;fontFamily=Verdana;fontSize=12;edgeStyle=elbowEdgeStyle;elbow=vertical;" parent="1" source="7baba1c4bc27f4b0-9" target="7baba1c4bc27f4b0-10" edge="1">
          <mxGeometry x="-0.0303" y="5" relative="1" as="geometry">
            <mxPoint x="220" y="190" as="sourcePoint" />
            <mxPoint x="379" y="260" as="targetPoint" />
            <Array as="points">
              <mxPoint x="280" y="265" />
              <mxPoint x="240" y="260" />
              <mxPoint x="270" y="320" />
              <mxPoint x="240" y="260" />
              <mxPoint x="380" y="260" />
            </Array>
            <mxPoint as="offset" />
          </mxGeometry>
        </mxCell>
        <mxCell id="HAT6p0DpIvaJkLepDCV6-6" value="XDS::CXDS&lt;br&gt;" style="shape=umlLifeline;perimeter=lifelinePerimeter;whiteSpace=wrap;html=1;container=1;collapsible=0;recursiveResize=0;outlineConnect=0;" vertex="1" parent="1">
          <mxGeometry x="-150" y="80" width="100" height="550" as="geometry" />
        </mxCell>
        <mxCell id="HAT6p0DpIvaJkLepDCV6-17" style="edgeStyle=orthogonalEdgeStyle;rounded=0;orthogonalLoop=1;jettySize=auto;html=1;" edge="1" parent="HAT6p0DpIvaJkLepDCV6-6" source="HAT6p0DpIvaJkLepDCV6-13">
          <mxGeometry relative="1" as="geometry">
            <mxPoint x="56" y="140" as="targetPoint" />
            <Array as="points">
              <mxPoint x="75" y="100" />
              <mxPoint x="75" y="140" />
              <mxPoint x="56" y="140" />
            </Array>
          </mxGeometry>
        </mxCell>
        <mxCell id="HAT6p0DpIvaJkLepDCV6-18" value="ImportIris()" style="edgeLabel;html=1;align=center;verticalAlign=middle;resizable=0;points=[];fontSize=12;" vertex="1" connectable="0" parent="HAT6p0DpIvaJkLepDCV6-17">
          <mxGeometry x="-0.169" y="4" relative="1" as="geometry">
            <mxPoint x="31" y="1" as="offset" />
          </mxGeometry>
        </mxCell>
        <mxCell id="HAT6p0DpIvaJkLepDCV6-13" value="" style="html=1;points=[];perimeter=orthogonalPerimeter;" vertex="1" parent="HAT6p0DpIvaJkLepDCV6-6">
          <mxGeometry x="45" y="60" width="10" height="50" as="geometry" />
        </mxCell>
        <mxCell id="HAT6p0DpIvaJkLepDCV6-16" value="" style="html=1;points=[];perimeter=orthogonalPerimeter;" vertex="1" parent="HAT6p0DpIvaJkLepDCV6-6">
          <mxGeometry x="45" y="120" width="10" height="430" as="geometry" />
        </mxCell>
        <mxCell id="HAT6p0DpIvaJkLepDCV6-10" value="" style="shape=umlLifeline;participant=umlActor;perimeter=lifelinePerimeter;whiteSpace=wrap;html=1;container=1;collapsible=0;recursiveResize=0;verticalAlign=top;spacingTop=36;outlineConnect=0;" vertex="1" parent="1">
          <mxGeometry x="-260" y="80" width="20" height="300" as="geometry" />
        </mxCell>
        <mxCell id="HAT6p0DpIvaJkLepDCV6-12" value="" style="html=1;points=[];perimeter=orthogonalPerimeter;" vertex="1" parent="HAT6p0DpIvaJkLepDCV6-10">
          <mxGeometry x="5" y="60" width="10" height="50" as="geometry" />
        </mxCell>
        <mxCell id="HAT6p0DpIvaJkLepDCV6-14" style="edgeStyle=orthogonalEdgeStyle;rounded=0;orthogonalLoop=1;jettySize=auto;html=1;" edge="1" parent="1" source="HAT6p0DpIvaJkLepDCV6-12" target="HAT6p0DpIvaJkLepDCV6-13">
          <mxGeometry relative="1" as="geometry" />
        </mxCell>
        <mxCell id="HAT6p0DpIvaJkLepDCV6-15" value="slot_clickActionImport()" style="edgeLabel;html=1;align=center;verticalAlign=middle;resizable=0;points=[];fontSize=12;" vertex="1" connectable="0" parent="HAT6p0DpIvaJkLepDCV6-14">
          <mxGeometry x="-0.3708" y="-1" relative="1" as="geometry">
            <mxPoint x="25" y="-11" as="offset" />
          </mxGeometry>
        </mxCell>
        <mxCell id="HAT6p0DpIvaJkLepDCV6-19" style="edgeStyle=orthogonalEdgeStyle;rounded=0;orthogonalLoop=1;jettySize=auto;html=1;" edge="1" parent="1" target="7baba1c4bc27f4b0-9">
          <mxGeometry relative="1" as="geometry">
            <mxPoint x="-45" y="240" as="sourcePoint" />
            <mxPoint x="70" y="290" as="targetPoint" />
            <Array as="points">
              <mxPoint x="150" y="240" />
              <mxPoint x="150" y="240" />
            </Array>
          </mxGeometry>
        </mxCell>
        <mxCell id="HAT6p0DpIvaJkLepDCV6-20" value="ImportCFGData()" style="edgeLabel;html=1;align=center;verticalAlign=middle;resizable=0;points=[];fontSize=12;" vertex="1" connectable="0" parent="HAT6p0DpIvaJkLepDCV6-19">
          <mxGeometry x="-0.1973" y="-2" relative="1" as="geometry">
            <mxPoint x="9" y="-12" as="offset" />
          </mxGeometry>
        </mxCell>
        <mxCell id="HAT6p0DpIvaJkLepDCV6-23" style="edgeStyle=orthogonalEdgeStyle;rounded=0;orthogonalLoop=1;jettySize=auto;html=1;fontSize=12;" edge="1" parent="1" source="7baba1c4bc27f4b0-9" target="HAT6p0DpIvaJkLepDCV6-22">
          <mxGeometry relative="1" as="geometry">
            <Array as="points">
              <mxPoint x="240" y="320" />
              <mxPoint x="240" y="320" />
            </Array>
          </mxGeometry>
        </mxCell>
        <mxCell id="HAT6p0DpIvaJkLepDCV6-24" value="readGeom()" style="edgeLabel;html=1;align=center;verticalAlign=bottom;resizable=0;points=[];fontSize=12;labelBackgroundColor=none;fontFamily=Verdana;" vertex="1" connectable="0" parent="HAT6p0DpIvaJkLepDCV6-23">
          <mxGeometry x="-0.1758" y="3" relative="1" as="geometry">
            <mxPoint x="12" y="-7" as="offset" />
          </mxGeometry>
        </mxCell>
        <mxCell id="HAT6p0DpIvaJkLepDCV6-29" value="return&lt;br&gt;dataReop:CIRISPlusDataRepository" style="html=1;verticalAlign=bottom;endArrow=open;dashed=1;endSize=8;fontFamily=Verdana;fontSize=12;" edge="1" parent="1" source="7baba1c4bc27f4b0-8" target="HAT6p0DpIvaJkLepDCV6-6">
          <mxGeometry x="-0.0511" relative="1" as="geometry">
            <mxPoint x="90" y="339" as="sourcePoint" />
            <mxPoint x="-50" y="339" as="targetPoint" />
            <Array as="points">
              <mxPoint x="40" y="350" />
            </Array>
            <mxPoint as="offset" />
          </mxGeometry>
        </mxCell>
        <mxCell id="HAT6p0DpIvaJkLepDCV6-31" value="IrisPlus::&lt;br&gt;CTreeModelModelItem_IRISPlus" style="shape=umlLifeline;perimeter=lifelinePerimeter;whiteSpace=wrap;html=1;container=1;collapsible=0;recursiveResize=0;outlineConnect=0;labelBackgroundColor=none;fontFamily=Verdana;fontSize=12;" vertex="1" parent="1">
          <mxGeometry x="620" y="80" width="200" height="890" as="geometry" />
        </mxCell>
        <mxCell id="HAT6p0DpIvaJkLepDCV6-42" value="" style="html=1;points=[];perimeter=orthogonalPerimeter;labelBackgroundColor=none;fontFamily=Verdana;fontSize=12;" vertex="1" parent="HAT6p0DpIvaJkLepDCV6-31">
          <mxGeometry x="95" y="450" width="10" height="30" as="geometry" />
        </mxCell>
        <mxCell id="HAT6p0DpIvaJkLepDCV6-53" style="edgeStyle=orthogonalEdgeStyle;rounded=0;orthogonalLoop=1;jettySize=auto;html=1;fontFamily=Verdana;fontSize=12;align=left;" edge="1" parent="HAT6p0DpIvaJkLepDCV6-31" source="HAT6p0DpIvaJkLepDCV6-44">
          <mxGeometry relative="1" as="geometry">
            <mxPoint x="106" y="617" as="targetPoint" />
            <Array as="points">
              <mxPoint x="125" y="540" />
              <mxPoint x="125" y="617" />
            </Array>
          </mxGeometry>
        </mxCell>
        <mxCell id="HAT6p0DpIvaJkLepDCV6-54" value="&lt;span style=&quot;&quot;&gt;PCBDataToMetisData()&lt;/span&gt;" style="edgeLabel;html=1;align=left;verticalAlign=middle;resizable=0;points=[];fontSize=12;fontFamily=Verdana;" vertex="1" connectable="0" parent="HAT6p0DpIvaJkLepDCV6-53">
          <mxGeometry x="-0.3589" y="1" relative="1" as="geometry">
            <mxPoint y="-17.5" as="offset" />
          </mxGeometry>
        </mxCell>
        <mxCell id="HAT6p0DpIvaJkLepDCV6-44" value="" style="html=1;points=[];perimeter=orthogonalPerimeter;labelBackgroundColor=none;fontFamily=Verdana;fontSize=12;" vertex="1" parent="HAT6p0DpIvaJkLepDCV6-31">
          <mxGeometry x="95" y="500" width="10" height="80" as="geometry" />
        </mxCell>
        <mxCell id="HAT6p0DpIvaJkLepDCV6-45" value="importData(),&lt;br&gt;importIris(),&lt;br&gt;onDrawGrap(),&lt;br&gt;" style="edgeStyle=orthogonalEdgeStyle;html=1;align=left;spacingLeft=2;endArrow=block;rounded=0;fontFamily=Verdana;fontSize=12;exitX=1.133;exitY=0.743;exitDx=0;exitDy=0;exitPerimeter=0;" edge="1" parent="HAT6p0DpIvaJkLepDCV6-31" source="HAT6p0DpIvaJkLepDCV6-42">
          <mxGeometry relative="1" as="geometry">
            <mxPoint x="100" y="500" as="sourcePoint" />
            <Array as="points">
              <mxPoint x="130" y="472" />
              <mxPoint x="130" y="510" />
              <mxPoint x="105" y="510" />
            </Array>
            <mxPoint x="105" y="510" as="targetPoint" />
          </mxGeometry>
        </mxCell>
        <mxCell id="HAT6p0DpIvaJkLepDCV6-52" value="" style="html=1;points=[];perimeter=orthogonalPerimeter;labelBackgroundColor=none;fontFamily=Verdana;fontSize=12;" vertex="1" parent="HAT6p0DpIvaJkLepDCV6-31">
          <mxGeometry x="95" y="600" width="10" height="50" as="geometry" />
        </mxCell>
        <mxCell id="HAT6p0DpIvaJkLepDCV6-55" value="" style="html=1;points=[];perimeter=orthogonalPerimeter;labelBackgroundColor=none;fontFamily=Verdana;fontSize=12;align=left;" vertex="1" parent="HAT6p0DpIvaJkLepDCV6-31">
          <mxGeometry x="95" y="690" width="10" height="100" as="geometry" />
        </mxCell>
        <mxCell id="HAT6p0DpIvaJkLepDCV6-59" style="edgeStyle=orthogonalEdgeStyle;rounded=0;orthogonalLoop=1;jettySize=auto;html=1;fontFamily=Verdana;fontSize=12;align=left;" edge="1" parent="HAT6p0DpIvaJkLepDCV6-31" source="HAT6p0DpIvaJkLepDCV6-44" target="HAT6p0DpIvaJkLepDCV6-31">
          <mxGeometry relative="1" as="geometry">
            <mxPoint x="230" y="750" as="targetPoint" />
            <Array as="points">
              <mxPoint x="210" y="560" />
              <mxPoint x="210" y="700" />
            </Array>
          </mxGeometry>
        </mxCell>
        <mxCell id="HAT6p0DpIvaJkLepDCV6-60" value="onDrawGrap()" style="edgeLabel;html=1;align=left;verticalAlign=middle;resizable=0;points=[];fontSize=12;fontFamily=Verdana;" vertex="1" connectable="0" parent="HAT6p0DpIvaJkLepDCV6-59">
          <mxGeometry x="-0.08" relative="1" as="geometry">
            <mxPoint y="51.67" as="offset" />
          </mxGeometry>
        </mxCell>
        <mxCell id="HAT6p0DpIvaJkLepDCV6-32" style="edgeStyle=orthogonalEdgeStyle;rounded=0;orthogonalLoop=1;jettySize=auto;html=1;fontFamily=Verdana;fontSize=12;align=left;" edge="1" parent="1" source="HAT6p0DpIvaJkLepDCV6-16" target="HAT6p0DpIvaJkLepDCV6-35">
          <mxGeometry relative="1" as="geometry">
            <mxPoint x="480" y="480" as="targetPoint" />
            <mxPoint x="-45" y="470" as="sourcePoint" />
            <Array as="points">
              <mxPoint x="300" y="480" />
              <mxPoint x="300" y="480" />
            </Array>
          </mxGeometry>
        </mxCell>
        <mxCell id="HAT6p0DpIvaJkLepDCV6-34" value="projectItem-&amp;gt;newModelItem(dataRepo)" style="edgeLabel;html=1;align=center;verticalAlign=middle;resizable=0;points=[];fontSize=12;fontFamily=Verdana;" vertex="1" connectable="0" parent="HAT6p0DpIvaJkLepDCV6-32">
          <mxGeometry x="-0.0983" y="1" relative="1" as="geometry">
            <mxPoint x="39.17" y="-9" as="offset" />
          </mxGeometry>
        </mxCell>
        <mxCell id="HAT6p0DpIvaJkLepDCV6-35" value="XDS::&lt;font face=&quot;Helvetica&quot;&gt;CProjectItem&lt;/font&gt;" style="shape=umlLifeline;perimeter=lifelinePerimeter;whiteSpace=wrap;html=1;container=1;collapsible=0;recursiveResize=0;outlineConnect=0;labelBackgroundColor=none;fontFamily=Verdana;fontSize=12;" vertex="1" parent="1">
          <mxGeometry x="460" y="80" width="120" height="470" as="geometry" />
        </mxCell>
        <mxCell id="HAT6p0DpIvaJkLepDCV6-38" value="" style="html=1;points=[];perimeter=orthogonalPerimeter;labelBackgroundColor=none;fontFamily=Verdana;fontSize=12;" vertex="1" parent="HAT6p0DpIvaJkLepDCV6-35">
          <mxGeometry x="55" y="335" width="10" height="35" as="geometry" />
        </mxCell>
        <mxCell id="HAT6p0DpIvaJkLepDCV6-39" value="" style="html=1;points=[];perimeter=orthogonalPerimeter;labelBackgroundColor=none;fontFamily=Verdana;fontSize=12;" vertex="1" parent="HAT6p0DpIvaJkLepDCV6-35">
          <mxGeometry x="55" y="390" width="10" height="20" as="geometry" />
        </mxCell>
        <mxCell id="HAT6p0DpIvaJkLepDCV6-36" style="edgeStyle=orthogonalEdgeStyle;rounded=0;orthogonalLoop=1;jettySize=auto;html=1;fontFamily=Verdana;fontSize=12;align=left;" edge="1" parent="1" source="HAT6p0DpIvaJkLepDCV6-16" target="HAT6p0DpIvaJkLepDCV6-35">
          <mxGeometry relative="1" as="geometry">
            <mxPoint x="510" y="440" as="targetPoint" />
            <Array as="points">
              <mxPoint x="220" y="430" />
              <mxPoint x="220" y="430" />
            </Array>
          </mxGeometry>
        </mxCell>
        <mxCell id="HAT6p0DpIvaJkLepDCV6-37" value="projectItem = new CProjectItem()" style="edgeLabel;html=1;align=center;verticalAlign=bottom;resizable=0;points=[];fontSize=12;fontFamily=Verdana;" vertex="1" connectable="0" parent="HAT6p0DpIvaJkLepDCV6-36">
          <mxGeometry x="-0.4197" y="-3" relative="1" as="geometry">
            <mxPoint x="138" y="-3" as="offset" />
          </mxGeometry>
        </mxCell>
        <mxCell id="HAT6p0DpIvaJkLepDCV6-40" style="edgeStyle=orthogonalEdgeStyle;rounded=0;orthogonalLoop=1;jettySize=auto;html=1;fontFamily=Verdana;fontSize=12;align=left;" edge="1" parent="1" source="HAT6p0DpIvaJkLepDCV6-16" target="HAT6p0DpIvaJkLepDCV6-31">
          <mxGeometry relative="1" as="geometry">
            <mxPoint x="640" y="540" as="targetPoint" />
            <Array as="points">
              <mxPoint x="320" y="540" />
              <mxPoint x="320" y="540" />
            </Array>
          </mxGeometry>
        </mxCell>
        <mxCell id="HAT6p0DpIvaJkLepDCV6-41" value="createModel()" style="text;html=1;align=center;verticalAlign=middle;resizable=0;points=[];autosize=1;fontSize=12;fontFamily=Verdana;" vertex="1" parent="1">
          <mxGeometry x="230" y="520" width="100" height="20" as="geometry" />
        </mxCell>
        <mxCell id="HAT6p0DpIvaJkLepDCV6-46" value="MetisLib::&lt;br&gt;DataRepositoryConverter" style="shape=umlLifeline;perimeter=lifelinePerimeter;whiteSpace=wrap;html=1;container=1;collapsible=0;recursiveResize=0;outlineConnect=0;labelBackgroundColor=none;fontFamily=Verdana;fontSize=12;" vertex="1" parent="1">
          <mxGeometry x="920" y="80" width="160" height="680" as="geometry" />
        </mxCell>
        <mxCell id="HAT6p0DpIvaJkLepDCV6-48" value="" style="html=1;points=[];perimeter=orthogonalPerimeter;labelBackgroundColor=none;fontFamily=Verdana;fontSize=12;" vertex="1" parent="HAT6p0DpIvaJkLepDCV6-46">
          <mxGeometry x="75" y="590" width="10" height="80" as="geometry" />
        </mxCell>
        <mxCell id="HAT6p0DpIvaJkLepDCV6-50" style="edgeStyle=orthogonalEdgeStyle;rounded=0;orthogonalLoop=1;jettySize=auto;html=1;fontFamily=Verdana;fontSize=12;align=left;" edge="1" parent="1" source="HAT6p0DpIvaJkLepDCV6-52" target="HAT6p0DpIvaJkLepDCV6-48">
          <mxGeometry relative="1" as="geometry">
            <Array as="points">
              <mxPoint x="860" y="710" />
              <mxPoint x="860" y="710" />
            </Array>
          </mxGeometry>
        </mxCell>
        <mxCell id="HAT6p0DpIvaJkLepDCV6-51" value="ConvertDataReposityToMetisModel&lt;br&gt;(metisModel, dataRepo)" style="edgeLabel;html=1;align=center;verticalAlign=middle;resizable=0;points=[];fontSize=12;fontFamily=Verdana;" vertex="1" connectable="0" parent="HAT6p0DpIvaJkLepDCV6-50">
          <mxGeometry x="-0.0788" y="-1" relative="1" as="geometry">
            <mxPoint x="30" y="-21" as="offset" />
          </mxGeometry>
        </mxCell>
        <mxCell id="HAT6p0DpIvaJkLepDCV6-61" value="IrisPlus::&lt;br&gt;&lt;span style=&quot;background-color: rgb(255 , 255 , 255)&quot;&gt;IRISPlus2DWidget&lt;/span&gt;" style="shape=umlLifeline;perimeter=lifelinePerimeter;whiteSpace=wrap;html=1;container=1;collapsible=0;recursiveResize=0;outlineConnect=0;labelBackgroundColor=none;fontFamily=Verdana;fontSize=12;align=center;" vertex="1" parent="1">
          <mxGeometry x="1130" y="80" width="160" height="820" as="geometry" />
        </mxCell>
        <mxCell id="HAT6p0DpIvaJkLepDCV6-63" style="edgeStyle=orthogonalEdgeStyle;rounded=0;orthogonalLoop=1;jettySize=auto;html=1;fontFamily=Verdana;fontSize=12;align=left;" edge="1" parent="1" source="HAT6p0DpIvaJkLepDCV6-55" target="HAT6p0DpIvaJkLepDCV6-61">
          <mxGeometry relative="1" as="geometry">
            <Array as="points">
              <mxPoint x="1090" y="820" />
              <mxPoint x="1090" y="820" />
            </Array>
          </mxGeometry>
        </mxCell>
        <mxCell id="HAT6p0DpIvaJkLepDCV6-64" value="DrawAll()" style="edgeLabel;html=1;align=center;verticalAlign=middle;resizable=0;points=[];fontSize=12;fontFamily=Verdana;" vertex="1" connectable="0" parent="HAT6p0DpIvaJkLepDCV6-63">
          <mxGeometry x="-0.1574" y="2" relative="1" as="geometry">
            <mxPoint y="-8" as="offset" />
          </mxGeometry>
        </mxCell>
      </root>
    </mxGraphModel>
  </diagram>
</mxfile>
